<svg width="37" height="38" viewBox="0 0 37 38" fill="none" xmlns="http://www.w3.org/2000/svg">
<circle opacity="0.2" cx="18.0909" cy="19.0001" r="18.0909" fill="url(#paint0_linear_14_23)"/>
<path d="M11.1987 10.8032C9.74841 10.8032 8.79468 11.7258 8.79468 12.9508C8.79468 14.1525 9.71688 15.0983 11.1435 15.0983H11.1751C12.6569 15.0983 13.5791 14.1447 13.5712 12.9508C13.5397 11.7258 12.649 10.8032 11.1987 10.8032Z" fill="url(#paint1_linear_14_23)"/>
<path d="M12.7278 16.3042H8.79468V28.6855H12.7278V16.3042Z" fill="url(#paint2_linear_14_23)"/>
<path d="M23.7211 16.3042C21.4669 16.3042 20.056 17.5136 19.7959 18.3665V16.4205H15.374C15.4292 17.4516 15.374 28.8018 15.374 28.8018H19.7959V22.1111C19.7959 21.7312 19.7801 21.3591 19.8904 21.0955C20.19 20.3512 20.8442 19.5759 22.0186 19.5759C23.5556 19.5759 24.2492 20.7233 24.2492 22.3979V28.8018H28.7105V21.9173C28.7105 18.0874 26.5193 16.3042 23.7211 16.3042Z" fill="url(#paint3_linear_14_23)"/>
<defs>
<linearGradient id="paint0_linear_14_23" x1="18.0909" y1="0.90918" x2="18.0909" y2="37.091" gradientUnits="userSpaceOnUse">
<stop stop-color="#00D2FF"/>
<stop offset="1" stop-color="#059DBE"/>
</linearGradient>
<linearGradient id="paint1_linear_14_23" x1="11.183" y1="10.8032" x2="11.183" y2="15.0983" gradientUnits="userSpaceOnUse">
<stop stop-color="#00D2FF"/>
<stop offset="1" stop-color="#059DBE"/>
</linearGradient>
<linearGradient id="paint2_linear_14_23" x1="10.7613" y1="16.3042" x2="10.7613" y2="28.6855" gradientUnits="userSpaceOnUse">
<stop stop-color="#00D2FF"/>
<stop offset="1" stop-color="#059DBE"/>
</linearGradient>
<linearGradient id="paint3_linear_14_23" x1="22.0422" y1="16.3042" x2="22.0422" y2="28.8018" gradientUnits="userSpaceOnUse">
<stop stop-color="#00D2FF"/>
<stop offset="1" stop-color="#059DBE"/>
</linearGradient>
</defs>
</svg>
