<svg width="37" height="38" viewBox="0 0 37 38" fill="none" xmlns="http://www.w3.org/2000/svg">
<circle opacity="0.2" cx="18.909" cy="19.0001" r="18.0909" fill="url(#paint0_linear_14_20)"/>
<path d="M21.5457 18.9046C21.5457 17.3869 20.3315 16.1727 18.8138 16.1727C17.296 16.1727 16.0819 17.3869 16.0819 18.9046C16.0819 20.4223 17.296 21.6365 18.8138 21.6365C20.3315 21.6365 21.5457 20.4223 21.5457 18.9046ZM22.9622 18.9046C22.9622 21.2318 21.1409 23.053 18.8138 23.053C16.4866 23.053 14.6653 21.2318 14.6653 18.9046C14.6653 16.5774 16.4866 14.7561 18.8138 14.7561C21.1409 14.7561 22.9622 16.5774 22.9622 18.9046ZM24.0752 14.5538C24.0752 15.1609 23.6705 15.5656 23.0634 15.5656C22.4563 15.5656 22.0516 15.1609 22.0516 14.5538C22.0516 13.9467 22.4563 13.542 23.0634 13.542C23.6705 13.542 24.0752 14.0479 24.0752 14.5538ZM18.8138 12.2266C17.5996 12.2266 15.07 12.1254 14.0582 12.5301C13.35 12.8337 12.7429 13.4408 12.5405 14.1491C12.1358 15.1609 12.237 17.6904 12.237 18.9046C12.237 20.1188 12.1358 22.6483 12.5405 23.6601C12.7429 24.3684 13.35 24.9755 14.0582 25.1779C15.07 25.5826 17.7008 25.4814 18.8138 25.4814C19.9268 25.4814 22.5575 25.5826 23.5693 25.1779C24.2776 24.8743 24.7835 24.3684 25.087 23.6601C25.4918 22.5471 25.3906 20.0176 25.3906 18.9046C25.3906 17.7916 25.4918 15.1609 25.087 14.1491C24.8847 13.4408 24.2776 12.8337 23.5693 12.6313C22.5575 12.1254 20.028 12.2266 18.8138 12.2266ZM26.9083 18.9046V22.2436C26.9083 23.4578 26.5036 24.6719 25.5929 25.6838C24.6823 26.5944 23.4681 26.9991 22.1528 26.9991H15.4748C14.2606 26.9991 13.0464 26.5944 12.0346 25.6838C11.2251 24.7731 10.7192 23.5589 10.7192 22.2436V18.9046V15.5656C10.7192 14.2502 11.2251 13.0361 12.0346 12.1254C13.0464 11.316 14.2606 10.8101 15.4748 10.8101H22.1528C23.3669 10.8101 24.5811 11.2148 25.5929 12.1254C26.4024 13.0361 26.9083 14.2502 26.9083 15.5656V18.9046Z" fill="url(#paint1_linear_14_20)"/>
<defs>
<linearGradient id="paint0_linear_14_20" x1="18.909" y1="0.90918" x2="18.909" y2="37.091" gradientUnits="userSpaceOnUse">
<stop stop-color="#00D2FF"/>
<stop offset="1" stop-color="#059DBE"/>
</linearGradient>
<linearGradient id="paint1_linear_14_20" x1="18.8138" y1="10.8101" x2="18.8138" y2="26.9991" gradientUnits="userSpaceOnUse">
<stop stop-color="#00D2FF"/>
<stop offset="1" stop-color="#059DBE"/>
</linearGradient>
</defs>
</svg>
