<svg width="188" height="35" viewBox="0 0 188 35" fill="none" xmlns="http://www.w3.org/2000/svg">
<g clip-path="url(#clip0_14_377)">
<path d="M17.2706 34.0968C26.6865 34.0968 34.319 26.4643 34.319 17.0484V5.11452C34.319 3.75807 33.7802 2.45717 32.821 1.49801C31.8619 0.53885 30.561 0 29.2045 0L18.123 0V7.47914C18.123 9.18569 18.227 10.9536 19.1221 12.4061C19.7628 13.4471 20.62 14.3381 21.6354 15.0186C22.6509 15.6992 23.8008 16.1533 25.0072 16.3503L25.3337 16.4031C25.4683 16.4491 25.5851 16.5361 25.6678 16.6518C25.7506 16.7675 25.795 16.9062 25.795 17.0484C25.795 17.1907 25.7506 17.3293 25.6678 17.445C25.5851 17.5607 25.4683 17.6477 25.3337 17.6937L25.0072 17.7465C23.2445 18.0345 21.6168 18.8688 20.3539 20.1317C19.091 21.3946 18.2567 23.0223 17.9688 24.785L17.9159 25.1115C17.8699 25.2461 17.783 25.3629 17.6673 25.4456C17.5515 25.5284 17.4129 25.5728 17.2706 25.5728C17.1284 25.5728 16.9897 25.5284 16.874 25.4456C16.7583 25.3629 16.6714 25.2461 16.6253 25.1115L16.5725 24.785C16.3755 23.5786 15.9213 22.4287 15.2408 21.4133C14.5602 20.3978 13.6693 19.5407 12.6283 18.8999C11.1758 18.0048 9.4079 17.9008 7.70136 17.9008H0.242676C0.688492 26.9203 8.1412 34.0968 17.2706 34.0968Z" fill="#666666"/>
<path d="M0.222168 16.196H7.70131C9.40785 16.196 11.1758 16.092 12.6283 15.197C13.7637 14.4974 14.7195 13.5416 15.4191 12.4061C16.3142 10.9536 16.4182 9.18568 16.4182 7.47914V0H5.33669C3.98024 0 2.67934 0.53885 1.72018 1.49801C0.761018 2.45717 0.222168 3.75807 0.222168 5.11452L0.222168 16.196ZM39.8214 1.70484C39.8214 2.15699 39.6418 2.59063 39.322 2.91035C39.0023 3.23007 38.5687 3.40968 38.1165 3.40968C37.6644 3.40968 37.2307 3.23007 36.911 2.91035C36.5913 2.59063 36.4117 2.15699 36.4117 1.70484C36.4117 1.25269 36.5913 0.819056 36.911 0.499336C37.2307 0.179617 37.6644 0 38.1165 0C38.5687 0 39.0023 0.179617 39.322 0.499336C39.6418 0.819056 39.8214 1.25269 39.8214 1.70484ZM180.689 10.3177C185.455 10.3177 187.755 13.6464 187.755 17.5019V24.7432H182.767V18.3611C182.767 16.6137 182.13 15.1714 180.301 15.1714C178.473 15.1714 177.863 16.6137 177.863 18.3611V24.7424H172.876V18.3611C172.876 16.6137 172.266 15.1714 170.437 15.1714C168.608 15.1714 167.971 16.6137 167.971 18.3611V24.7424H162.984V17.501C162.984 13.6455 165.283 10.3168 170.049 10.3168C172.654 10.3168 174.538 11.3432 175.397 13.0352C176.311 11.3432 178.306 10.316 180.689 10.316V10.3177ZM154.022 20.3047C155.629 20.3047 156.322 18.8342 156.322 17.0859V10.8718H161.308V17.6963C161.308 21.7742 158.926 25.1592 154.022 25.1592C149.117 25.1592 146.735 21.7751 146.735 17.6963V10.8718H151.722V17.0859C151.722 18.8334 152.414 20.3047 154.022 20.3047ZM139.401 25.1865C136.27 25.1865 134.247 24.1047 133.056 21.9967L136.658 19.9714C137.157 20.8587 137.904 21.3028 139.151 21.3028C140.177 21.3028 140.647 20.9423 140.647 20.4982C140.647 18.8061 133.333 20.5263 133.333 15.145C133.333 12.5365 135.549 10.4285 139.318 10.4285C142.615 10.4285 144.416 12.037 145.22 13.591L141.617 15.6436C141.313 14.8117 140.37 14.3121 139.428 14.3121C138.708 14.3121 138.32 14.6173 138.32 15.0333C138.32 16.7535 145.635 15.1722 145.635 20.3873C145.635 23.3001 142.781 25.1865 139.401 25.1865ZM121.976 31.1236H116.988V17.7798C116.988 13.5347 120.175 10.4558 124.608 10.4558C128.931 10.4558 132.228 13.7572 132.228 17.7798C132.228 22.2183 129.291 25.1592 124.885 25.1592C123.86 25.1592 122.835 24.854 121.976 24.3818V31.1236ZM124.608 20.4709C126.188 20.4709 127.241 19.2502 127.241 17.8071C127.241 16.3375 126.188 15.1441 124.608 15.1441C123.029 15.1441 121.976 16.3375 121.976 17.8079C121.976 19.2502 123.029 20.4709 124.608 20.4709ZM111.992 9.4022C110.357 9.4022 109 8.04259 109 6.40594C109 4.76929 110.357 3.40968 111.992 3.40968C113.627 3.40968 114.985 4.76929 114.985 6.40594C114.985 8.04259 113.627 9.4022 111.992 9.4022ZM109.499 10.8718H114.487V24.7432H109.499V10.8718ZM99.9298 25.1592C95.6072 25.1592 92.31 21.8305 92.31 17.7798C92.31 13.7572 95.6072 10.4285 99.9298 10.4285C104.252 10.4285 107.55 13.7572 107.55 17.7798C107.55 21.8305 104.252 25.1592 99.9298 25.1592ZM99.9298 20.4709C101.509 20.4709 102.562 19.2502 102.562 17.8071C102.562 16.3375 101.509 15.1168 99.9298 15.1168C98.3503 15.1168 97.2975 16.3375 97.2975 17.8071C97.2975 19.2502 98.3503 20.4709 99.9298 20.4709ZM82.8925 31.5396C79.4572 31.5396 76.963 30.0137 75.6887 27.2945L79.8169 25.0757C80.2602 26.0193 81.0913 26.9902 82.8089 26.9902C84.611 26.9902 85.8018 25.8522 85.9407 23.855C85.2758 24.438 84.2223 24.8813 82.6436 24.8813C78.7915 24.8813 75.6878 21.9132 75.6878 17.7517C75.6878 13.7299 78.9858 10.4558 83.3085 10.4558C87.7419 10.4558 90.9283 13.5356 90.9283 17.7798V23.2728C90.9283 28.2663 87.464 31.5396 82.8925 31.5396ZM83.2249 20.1938C84.7209 20.1938 85.8572 19.1667 85.8572 17.6408C85.8572 16.1431 84.7218 15.1441 83.2249 15.1441C81.7562 15.1441 80.5927 16.1431 80.5927 17.6417C80.5927 19.1675 81.7562 20.193 83.2249 20.193V20.1938ZM67.2284 25.1592C62.9058 25.1592 59.6078 21.8305 59.6078 17.7798C59.6078 13.7572 62.9058 10.4285 67.2284 10.4285C71.5502 10.4285 74.8482 13.7572 74.8482 17.7798C74.8482 21.8305 71.551 25.1592 67.2284 25.1592ZM67.2284 20.4709C68.8079 20.4709 69.8607 19.2502 69.8607 17.8071C69.8607 16.3375 68.8079 15.1168 67.2284 15.1168C65.6489 15.1168 64.5961 16.3375 64.5961 17.8071C64.5961 19.2502 65.6489 20.4709 67.2284 20.4709ZM50.5261 6.01809V20.0268H58.7835V24.7432H49.833C46.6748 24.7432 45.4005 23.0784 45.4005 20.4428V6.01809H50.5261Z" fill="#666666"/>
</g>
<defs>
<clipPath id="clip0_14_377">
<rect width="187.533" height="34.0968" fill="white" transform="translate(0.222168)"/>
</clipPath>
</defs>
</svg>
