<svg width="188" height="36" viewBox="0 0 188 36" fill="none" xmlns="http://www.w3.org/2000/svg">
<g clip-path="url(#clip0_14_391)">
<g clip-path="url(#clip1_14_391)">
<path d="M20.2701 6.55097C19.864 3.07106 19.4353 -0.603185 19.4353 -4.86963H23.2662C23.2662 -0.651105 22.8395 3.01847 22.434 6.50229C22.1036 9.3414 21.7876 12.0572 21.7289 14.8461C23.6525 12.8397 25.3352 10.7122 27.0979 8.48356C29.2712 5.73583 31.5663 2.83458 34.5829 -0.182156L37.2919 2.52679C34.3089 5.50974 31.412 7.80261 28.6619 9.97944L28.6593 9.9814C26.4193 11.7547 24.2764 13.451 22.2636 15.3808C25.0422 15.3221 27.7364 15.0078 30.5585 14.6784C34.0385 14.2722 37.7129 13.8435 41.9793 13.8435V17.6744C37.761 17.6744 34.0914 17.2475 30.6077 16.8422L30.6051 16.8419C27.7666 16.5117 25.0517 16.1959 22.2636 16.1371C24.2687 18.0592 26.3951 19.7412 28.6222 21.5027L28.6257 21.5057C31.3736 23.6792 34.275 25.9741 37.2919 28.9911L34.5829 31.7001C31.6 28.7172 29.3072 25.8205 27.1307 23.0706L27.1255 23.0635L27.1212 23.0579C25.3501 20.8213 23.6559 18.6818 21.7289 16.6718C21.7876 19.4607 22.1036 22.1765 22.434 25.0156C22.8395 28.4995 23.2662 32.169 23.2662 36.3875H19.4353C19.4353 32.1211 19.864 28.4469 20.2701 24.9669L20.2709 24.9613C20.5999 22.1411 20.9139 19.4486 20.9726 16.6718C19.0456 18.6818 17.3514 20.8213 15.5803 23.0579L15.576 23.0635L15.5708 23.0706C13.3943 25.8205 11.1015 28.7172 8.11859 31.7001L5.40964 28.9911C8.42652 25.9741 11.3279 23.6792 14.0758 21.5057L14.0793 21.5027C16.3064 19.7412 18.4328 18.0592 20.4379 16.1371C17.6489 16.196 14.9331 16.5119 12.0938 16.8422C8.61012 17.2475 4.94055 17.6744 0.722168 17.6744V13.8435C4.98861 13.8435 8.66308 14.2722 12.143 14.6784C14.9651 15.0078 17.6593 15.3221 20.4379 15.3808C18.4243 13.4503 16.2806 11.7535 14.0396 9.97944C11.2895 7.80261 8.39255 5.50974 5.40964 2.52679L8.11859 -0.182156C11.1352 2.83458 13.4303 5.73583 15.6036 8.48356C17.3663 10.7121 19.049 12.8396 20.9726 14.8459C20.9139 12.0692 20.5999 9.37678 20.2709 6.55664L20.2701 6.55097Z" fill="#666666"/>
</g>
<path d="M58.7982 24.0002H64.3943V27.298H54.5261V9.76001H58.7982V24.0002Z" fill="#666666"/>
<path d="M72.0283 27.4979C70.6626 27.4979 69.4301 27.2064 68.3308 26.6235C67.2483 26.0406 66.3905 25.2078 65.7576 24.1252C65.1414 23.0426 64.8333 21.7768 64.8333 20.3277C64.8333 18.8955 65.1496 17.6379 65.7825 16.5553C66.4155 15.4561 67.2816 14.615 68.3808 14.0321C69.4801 13.4492 70.7126 13.1577 72.0783 13.1577C73.444 13.1577 74.6765 13.4492 75.7757 14.0321C76.875 14.615 77.7411 15.4561 78.3739 16.5553C79.0068 17.6379 79.3233 18.8955 79.3233 20.3277C79.3233 21.7601 78.9985 23.0259 78.349 24.1252C77.7161 25.2078 76.8417 26.0406 75.7257 26.6235C74.6266 27.2064 73.3941 27.4979 72.0283 27.4979ZM72.0283 23.8004C72.8444 23.8004 73.5356 23.5007 74.102 22.9011C74.6849 22.3014 74.9763 21.4437 74.9763 20.3277C74.9763 19.2119 74.6931 18.3542 74.1269 17.7546C73.5772 17.1549 72.8944 16.8551 72.0783 16.8551C71.2455 16.8551 70.5543 17.1549 70.0047 17.7546C69.455 18.3375 69.1803 19.1952 69.1803 20.3277C69.1803 21.4437 69.4468 22.3014 69.9798 22.9011C70.5294 23.5007 71.2123 23.8004 72.0283 23.8004Z" fill="#666666"/>
<path d="M86.1365 13.1577C87.1191 13.1577 87.9769 13.3576 88.7098 13.7573C89.4592 14.157 90.0339 14.6817 90.4336 15.3312V13.3576H94.7056V27.273C94.7056 28.5555 94.4475 29.7131 93.9312 30.7456C93.4315 31.7949 92.657 32.6277 91.6078 33.2439C90.5752 33.8602 89.2843 34.1684 87.7355 34.1684C85.6702 34.1684 83.9963 33.677 82.7138 32.6944C81.4314 31.7283 80.6985 30.4125 80.5153 28.747H84.7375C84.8707 29.2799 85.1872 29.6964 85.6869 29.9962C86.1864 30.3126 86.8028 30.4708 87.5356 30.4708C88.4183 30.4708 89.1177 30.2127 89.6341 29.6964C90.1671 29.1967 90.4336 28.389 90.4336 27.273V25.2994C90.0172 25.9489 89.4426 26.482 88.7098 26.8983C87.9769 27.298 87.1191 27.4979 86.1365 27.4979C84.9873 27.4979 83.9463 27.2064 83.0136 26.6235C82.0809 26.0239 81.3397 25.1828 80.7902 24.1002C80.2573 23.001 79.9907 21.7352 79.9907 20.3028C79.9907 18.8704 80.2573 17.613 80.7902 16.5304C81.3397 15.4478 82.0809 14.615 83.0136 14.0321C83.9463 13.4492 84.9873 13.1577 86.1365 13.1577ZM90.4336 20.3277C90.4336 19.2618 90.1338 18.4207 89.5342 17.8045C88.9513 17.1883 88.235 16.8802 87.3857 16.8802C86.5362 16.8802 85.8117 17.1883 85.2121 17.8045C84.6292 18.4041 84.3377 19.2369 84.3377 20.3028C84.3377 21.3687 84.6292 22.2182 85.2121 22.8511C85.8117 23.4673 86.5362 23.7754 87.3857 23.7754C88.235 23.7754 88.9513 23.4673 89.5342 22.8511C90.1338 22.2348 90.4336 21.3938 90.4336 20.3277Z" fill="#666666"/>
<path d="M103.393 27.4979C102.027 27.4979 100.794 27.2064 99.6952 26.6235C98.6126 26.0406 97.7548 25.2078 97.1219 24.1252C96.5057 23.0426 96.1975 21.7768 96.1975 20.3277C96.1975 18.8955 96.5139 17.6379 97.1469 16.5553C97.7798 15.4561 98.6458 14.615 99.745 14.0321C100.844 13.4492 102.077 13.1577 103.443 13.1577C104.808 13.1577 106.041 13.4492 107.14 14.0321C108.239 14.615 109.105 15.4561 109.738 16.5553C110.371 17.6379 110.688 18.8955 110.688 20.3277C110.688 21.7601 110.363 23.0259 109.713 24.1252C109.08 25.2078 108.206 26.0406 107.09 26.6235C105.991 27.2064 104.758 27.4979 103.393 27.4979ZM103.393 23.8004C104.209 23.8004 104.9 23.5007 105.466 22.9011C106.049 22.3014 106.341 21.4437 106.341 20.3277C106.341 19.2119 106.057 18.3542 105.491 17.7546C104.941 17.1549 104.259 16.8551 103.443 16.8551C102.61 16.8551 101.919 17.1549 101.369 17.7546C100.819 18.3375 100.545 19.1952 100.545 20.3277C100.545 21.4437 100.811 22.3014 101.344 22.9011C101.894 23.5007 102.577 23.8004 103.393 23.8004Z" fill="#666666"/>
<path d="M114.353 11.9085C113.603 11.9085 112.987 11.6919 112.504 11.2589C112.038 10.8092 111.805 10.2596 111.805 9.61004C111.805 8.94383 112.038 8.3942 112.504 7.96116C112.987 7.51147 113.603 7.28662 114.353 7.28662C115.086 7.28662 115.685 7.51147 116.152 7.96116C116.635 8.3942 116.876 8.94383 116.876 9.61004C116.876 10.2596 116.635 10.8092 116.152 11.2589C115.685 11.6919 115.086 11.9085 114.353 11.9085ZM116.476 13.3575V27.2979H112.204V13.3575H116.476Z" fill="#666666"/>
<path d="M123.095 15.3312C123.511 14.6817 124.086 14.157 124.819 13.7573C125.552 13.3576 126.41 13.1577 127.392 13.1577C128.542 13.1577 129.582 13.4492 130.515 14.0321C131.448 14.615 132.181 15.4478 132.713 16.5304C133.263 17.613 133.539 18.8704 133.539 20.3028C133.539 21.7352 133.263 23.001 132.713 24.1002C132.181 25.1828 131.448 26.0239 130.515 26.6235C129.582 27.2064 128.542 27.4979 127.392 27.4979C126.426 27.4979 125.569 27.298 124.819 26.8983C124.086 26.4985 123.511 25.9823 123.095 25.3494V33.9435H118.823V13.3576H123.095V15.3312ZM129.191 20.3028C129.191 19.2369 128.891 18.4041 128.291 17.8045C127.708 17.1883 126.985 16.8802 126.118 16.8802C125.269 16.8802 124.544 17.1883 123.944 17.8045C123.362 18.4207 123.071 19.2618 123.071 20.3277C123.071 21.3938 123.362 22.2348 123.944 22.8511C124.544 23.4673 125.269 23.7754 126.118 23.7754C126.968 23.7754 127.692 23.4673 128.291 22.8511C128.891 22.2182 129.191 21.3687 129.191 20.3028Z" fill="#666666"/>
<path d="M140.701 27.4979C139.485 27.4979 138.402 27.2897 137.452 26.8734C136.504 26.4569 135.754 25.8907 135.204 25.1744C134.655 24.4416 134.347 23.6255 134.28 22.7261H138.503C138.552 23.2091 138.777 23.6005 139.176 23.9003C139.577 24.2001 140.068 24.35 140.651 24.35C141.184 24.35 141.591 24.2501 141.874 24.0502C142.175 23.8338 142.325 23.5589 142.325 23.2258C142.325 22.826 142.116 22.5346 141.7 22.3514C141.284 22.1515 140.609 21.9351 139.676 21.7018C138.677 21.4687 137.844 21.2272 137.178 20.9773C136.512 20.7109 135.938 20.3028 135.455 19.7532C134.971 19.1869 134.73 18.4291 134.73 17.4798C134.73 16.6803 134.947 15.9558 135.38 15.3062C135.829 14.6401 136.478 14.1153 137.328 13.7323C138.194 13.3492 139.219 13.1577 140.401 13.1577C142.149 13.1577 143.524 13.5907 144.523 14.4568C145.539 15.3229 146.122 16.4721 146.272 17.9045H142.325C142.258 17.4215 142.041 17.0384 141.675 16.7552C141.325 16.4721 140.859 16.3305 140.276 16.3305C139.777 16.3305 139.393 16.4305 139.127 16.6303C138.861 16.8135 138.728 17.0717 138.728 17.4048C138.728 17.8045 138.936 18.1043 139.352 18.3042C139.785 18.5041 140.45 18.704 141.351 18.9037C142.383 19.1702 143.224 19.4368 143.873 19.7032C144.523 19.953 145.089 20.3694 145.572 20.9524C146.072 21.5186 146.331 22.2847 146.347 23.2508C146.347 24.0669 146.114 24.7997 145.647 25.4493C145.198 26.0822 144.54 26.5819 143.674 26.9483C142.824 27.3147 141.833 27.4979 140.701 27.4979Z" fill="#666666"/>
<path d="M161.977 13.3574V27.2979H157.705V25.3992C157.272 26.0154 156.68 26.5151 155.931 26.8981C155.198 27.2646 154.382 27.4478 153.482 27.4478C152.416 27.4478 151.475 27.2146 150.66 26.7482C149.843 26.2652 149.21 25.574 148.761 24.6747C148.311 23.7753 148.086 22.7177 148.086 21.5018V13.3574H152.333V20.9272C152.333 21.8599 152.575 22.5844 153.058 23.1008C153.54 23.617 154.19 23.8752 155.007 23.8752C155.839 23.8752 156.497 23.617 156.98 23.1008C157.463 22.5844 157.705 21.8599 157.705 20.9272V13.3574H161.977Z" fill="#666666"/>
<path d="M182.084 13.2075C183.815 13.2075 185.19 13.7321 186.206 14.7815C187.238 15.8307 187.755 17.288 187.755 19.1534V27.2979H183.508V19.7281C183.508 18.8287 183.266 18.1374 182.783 17.6545C182.316 17.1548 181.668 16.9049 180.834 16.9049C180.002 16.9049 179.344 17.1548 178.861 17.6545C178.395 18.1374 178.161 18.8287 178.161 19.7281V27.2979H173.914V19.7281C173.914 18.8287 173.673 18.1374 173.19 17.6545C172.723 17.1548 172.073 16.9049 171.241 16.9049C170.409 16.9049 169.75 17.1548 169.268 17.6545C168.801 18.1374 168.568 18.8287 168.568 19.7281V27.2979H164.296V13.3574H168.568V15.1062C169.001 14.5233 169.568 14.0652 170.267 13.7321C170.966 13.3823 171.758 13.2075 172.64 13.2075C173.69 13.2075 174.623 13.4323 175.438 13.882C176.27 14.3317 176.92 14.973 177.387 15.8058C177.87 15.0395 178.528 14.415 179.36 13.932C180.193 13.449 181.101 13.2075 182.084 13.2075Z" fill="#666666"/>
</g>
<defs>
<clipPath id="clip0_14_391">
<rect width="187.533" height="35.0867" fill="white" transform="translate(0.222168)"/>
</clipPath>
<clipPath id="clip1_14_391">
<rect width="41.2572" height="41.2572" fill="white" transform="translate(0.722168 -4.86963)"/>
</clipPath>
</defs>
</svg>
