<svg width="188" height="35" viewBox="0 0 188 35" fill="none" xmlns="http://www.w3.org/2000/svg">
<g clip-path="url(#clip0_14_363)">
<path d="M105.477 25.3975H109.488V10.2671H105.477V25.3975ZM105.477 7.90759H109.488V4.30933H105.477V7.90759Z" fill="#666666"/>
<path d="M112.073 30.3526H116.085V23.6869H116.143C116.998 24.9847 118.385 25.84 120.508 25.84C124.401 25.84 127.056 22.7432 127.056 17.8472C127.056 13.1281 124.49 9.85425 120.479 9.85425C118.414 9.85425 116.998 10.8276 116.025 12.1548H115.937V10.2672H112.073V30.3526ZM119.653 22.5072C117.264 22.5072 115.996 20.7081 115.996 17.9651C115.996 15.2517 116.998 13.0986 119.506 13.0986C121.983 13.0986 122.985 15.1042 122.985 17.9651C122.985 20.826 121.688 22.5072 119.653 22.5072Z" fill="#666666"/>
<path d="M135.057 25.84C138.833 25.84 141.428 24.0114 141.428 20.9735C141.428 17.4343 138.626 16.7264 136.09 16.1955C133.936 15.7531 131.931 15.6351 131.931 14.3374C131.931 13.2461 132.963 12.6562 134.527 12.6562C136.238 12.6562 137.27 13.2461 137.446 14.8682H141.074C140.78 11.8304 138.567 9.85425 134.586 9.85425C131.135 9.85425 128.421 11.4175 128.421 14.6913C128.421 17.9946 131.076 18.7319 133.789 19.2629C135.854 19.6758 137.771 19.8232 137.771 21.2684C137.771 22.3302 136.768 23.0086 134.999 23.0086C133.199 23.0086 131.96 22.2417 131.695 20.5016H127.979C128.215 23.7164 130.663 25.84 135.057 25.84Z" fill="#666666"/>
<path d="M156.657 25.3975V10.2671H152.646V18.9973C152.646 21.0029 151.496 22.4186 149.608 22.4186C147.897 22.4186 147.101 21.4453 147.101 19.6757V10.2671H143.119V20.354C143.119 23.6573 145.007 25.8104 148.369 25.8104C150.493 25.8104 151.673 25.0141 152.705 23.6279H152.794V25.3975H156.657Z" fill="#666666"/>
<path d="M159.251 25.3976H163.263V16.6084C163.263 14.6028 164.354 13.3051 165.977 13.3051C167.451 13.3051 168.306 14.1899 168.306 15.9005V25.3976H172.318V16.6084C172.318 14.6028 173.35 13.3051 175.031 13.3051C176.506 13.3051 177.361 14.1899 177.361 15.9005V25.3976H181.373V15.2222C181.373 11.9188 179.573 9.85425 176.387 9.85425C174.471 9.85425 172.878 10.857 171.845 12.5087H171.787C171.05 10.916 169.516 9.85425 167.598 9.85425C165.505 9.85425 164.03 10.916 163.204 12.3022H163.116V10.2672H159.251V25.3976Z" fill="#666666"/>
<path d="M0.931152 25.3975H4.94233V4.30933H0.931152V25.3975Z" fill="#666666"/>
<path d="M14.7504 25.84C19.4399 25.84 22.6547 22.3597 22.6547 17.8472C22.6547 13.3345 19.4399 9.85425 14.7504 9.85425C10.0608 9.85425 6.84595 13.3345 6.84595 17.8472C6.84595 22.3597 10.0608 25.84 14.7504 25.84ZM14.7504 22.7727C12.2729 22.7727 10.9161 20.7965 10.9161 17.8472C10.9161 14.8978 12.2729 12.8922 14.7504 12.8922C17.1984 12.8922 18.5846 14.8978 18.5846 17.8472C18.5846 20.7965 17.1984 22.7727 14.7504 22.7727Z" fill="#666666"/>
<path d="M31.1847 30.559C33.4262 30.559 35.3729 30.0282 36.6411 28.8484C37.7619 27.8161 38.4402 26.3709 38.4402 24.2474V10.2672H34.5766V11.8599H34.5175C33.6032 10.5916 32.217 9.85425 30.3294 9.85425C26.4952 9.85425 23.7817 12.7447 23.7817 17.2572C23.7817 21.8288 27.0851 24.4832 30.4474 24.4832C32.3644 24.4832 33.5148 23.7164 34.3995 22.7136H34.488V24.3653C34.488 26.4299 33.3967 27.5212 31.1257 27.5212C29.2676 27.5212 28.4122 26.7838 28.0878 25.84H24.1061C24.5191 28.7894 27.0556 30.559 31.1847 30.559ZM31.1257 21.2684C29.0611 21.2684 27.7044 19.7642 27.7044 17.1983C27.7044 14.6618 29.0611 13.0691 31.0962 13.0691C33.5148 13.0691 34.6945 14.9568 34.6945 17.1688C34.6945 19.4103 33.6622 21.2684 31.1257 21.2684Z" fill="#666666"/>
<path d="M48.1901 25.84C52.8796 25.84 56.0945 22.3597 56.0945 17.8472C56.0945 13.3345 52.8796 9.85425 48.1901 9.85425C43.5005 9.85425 40.2856 13.3345 40.2856 17.8472C40.2856 22.3597 43.5005 25.84 48.1901 25.84ZM48.1901 22.7727C45.7126 22.7727 44.3559 20.7965 44.3559 17.8472C44.3559 14.8978 45.7126 12.8922 48.1901 12.8922C50.638 12.8922 52.0243 14.8978 52.0243 17.8472C52.0243 20.7965 50.638 22.7727 48.1901 22.7727Z" fill="#666666"/>
<path d="M182.83 7.78311C182.83 7.1044 183.38 6.5542 184.059 6.5542H186.517C187.196 6.5542 187.746 7.1044 187.746 7.78311C187.746 8.46183 187.196 9.01204 186.517 9.01204H184.059C183.38 9.01204 182.83 8.46183 182.83 7.78311Z" fill="#666666"/>
<path fill-rule="evenodd" clip-rule="evenodd" d="M80.4204 0C89.922 0 97.6255 7.70286 97.6255 17.2048C97.6255 26.7068 89.922 34.4096 80.4204 34.4096C70.9184 34.4096 63.2156 26.7068 63.2156 17.2048C63.2156 7.70286 70.9184 0 80.4204 0ZM79.7985 1.28743C77.8357 1.56365 75.9668 3.14081 74.516 5.77858C74.0951 6.54371 73.7154 7.38901 73.3846 8.3017C75.3573 7.80597 77.5243 7.51371 79.7985 7.4685V1.28743ZM71.9304 8.71493C72.342 7.42352 72.8453 6.23537 73.4262 5.17921C74.1454 3.87159 74.9989 2.74241 75.9606 1.87513C70.7312 3.39385 66.6094 7.51574 65.0906 12.7451C65.9579 11.7834 67.0871 10.9299 68.3947 10.2107C69.4509 9.6298 70.639 9.12638 71.9304 8.71493ZM71.5172 10.169C71.0215 12.1417 70.7293 14.3087 70.684 16.583H64.5029C64.7791 14.6201 66.3563 12.7512 68.9942 11.3005C69.7593 10.8796 70.6045 10.4999 71.5172 10.169ZM71.928 16.583C71.9794 14.1011 72.3367 11.771 72.9279 9.71229C74.9866 9.12113 77.3166 8.76379 79.7985 8.71243V11.3989C78.8726 13.7692 76.9842 15.6574 74.6139 16.583H71.928ZM70.684 17.8267H64.5029C64.7791 19.7895 66.3563 21.6584 68.9942 23.1092C69.7593 23.53 70.6045 23.9097 71.5172 24.2406C71.0215 22.2679 70.7293 20.1009 70.684 17.8267ZM72.9279 24.6973C72.3367 22.6386 71.9794 20.3086 71.928 17.8267H74.6139C76.9842 18.7522 78.8726 20.6404 79.7985 23.0108V25.6972C77.3166 25.6458 74.9866 25.2885 72.9279 24.6973ZM71.9304 25.6947C70.639 25.2833 69.4509 24.7798 68.3947 24.1989C67.0871 23.4798 65.9579 22.6262 65.0906 21.6646C66.6094 26.8939 70.7312 31.0158 75.9606 32.5345C74.9989 31.6672 74.1454 30.538 73.4262 29.2304C72.8453 28.1743 72.342 26.9861 71.9304 25.6947ZM79.7985 33.1222C77.8357 32.846 75.9668 31.2688 74.516 28.6311C74.0951 27.866 73.7154 27.0206 73.3846 26.108C75.3573 26.6036 77.5243 26.8959 79.7985 26.9411V33.1222ZM84.8801 32.5345C85.8418 31.6672 86.6953 30.538 87.4144 29.2304C87.9951 28.1743 88.4992 26.9861 88.9104 25.6947C90.2016 25.2833 91.3896 24.7798 92.446 24.1989C93.7535 23.4798 94.883 22.6262 95.7501 21.6646C94.231 26.8939 90.1095 31.0158 84.8801 32.5345ZM87.4566 26.108C87.1254 27.0206 86.7451 27.866 86.3245 28.6311C84.874 31.2688 83.005 32.846 81.0422 33.1222V26.9411C83.3164 26.8959 85.4834 26.6036 87.4566 26.108ZM89.3233 24.2406C90.236 23.9097 91.0816 23.53 91.8464 23.1092C94.4847 21.6585 96.0616 19.7895 96.3377 17.8267H90.1569C90.1113 20.1009 89.8188 22.2679 89.3233 24.2406ZM88.913 17.8267C88.8613 20.3086 88.5043 22.6386 87.9125 24.6973C85.8541 25.2885 83.5241 25.6458 81.0422 25.6972V23.0127C81.9678 20.6416 83.8566 18.7525 86.2276 17.8267H88.913ZM90.1569 16.583H96.3377C96.0616 14.6201 94.4847 12.7512 91.8464 11.3005C91.0816 10.8796 90.236 10.4999 89.3233 10.169C89.8188 12.1417 90.1113 14.3087 90.1569 16.583ZM87.9125 9.71229C88.5043 11.771 88.8613 14.1011 88.913 16.583H86.2277C83.8566 15.6572 81.9678 13.7681 81.0422 11.3969V8.71243C83.5241 8.76379 85.8541 9.12113 87.9125 9.71229ZM88.9104 8.71493C90.2016 9.12638 91.3896 9.6298 92.446 10.2107C93.7535 10.9299 94.883 11.7834 95.7501 12.7451C94.231 7.51574 90.1095 3.39385 84.8801 1.87513C85.8418 2.74241 86.6953 3.87159 87.4144 5.17921C87.9951 6.23537 88.4992 7.42352 88.9104 8.71493ZM81.0422 1.28743C83.005 1.56365 84.874 3.14081 86.3245 5.77858C86.7451 6.54372 87.1254 7.38901 87.4566 8.3017C85.4834 7.80597 83.3164 7.51371 81.0422 7.4685V1.28743Z" fill="#666666"/>
</g>
<defs>
<clipPath id="clip0_14_363">
<rect width="187.533" height="34.4096" fill="white" transform="translate(0.222168)"/>
</clipPath>
</defs>
</svg>
