<svg width="190" height="49" viewBox="0 0 190 49" fill="none" xmlns="http://www.w3.org/2000/svg">
<path d="M56.6519 15.4123H61.2434V33.9773H56.6519V15.4123ZM63.0647 26.9676C63.0647 22.3761 65.8808 19.6365 70.2275 19.6365C74.5741 19.6365 77.3902 22.3761 77.3902 26.9676C77.3902 31.5591 74.6353 34.314 70.2275 34.314C65.8196 34.314 63.0647 31.6356 63.0647 26.9676ZM72.7834 26.9676C72.7834 24.4423 71.7886 22.9577 70.2275 22.9577C68.6663 22.9577 67.6868 24.4882 67.6868 26.9676C67.6868 29.447 68.651 30.9469 70.2275 30.9469C71.8039 30.9469 72.7834 29.5388 72.7834 26.9829V26.9676ZM79.1197 34.8803H83.5276C83.7374 35.3464 84.092 35.7322 84.5388 35.9804C84.9855 36.2285 85.5005 36.3259 86.007 36.2578C87.7518 36.2578 88.6701 35.3089 88.6701 33.9314V31.3602H88.5782C88.2125 32.1482 87.6188 32.8085 86.874 33.256C86.1293 33.7034 85.2674 33.9173 84.4 33.8702C81.0481 33.8702 78.8289 31.3142 78.8289 26.9217C78.8289 22.5291 80.941 19.7589 84.4612 19.7589C85.3559 19.7239 86.2399 19.9631 86.9949 20.4444C87.7499 20.9259 88.3398 21.6266 88.6854 22.4526V19.8967H93.2769V33.8243C93.2769 37.1761 90.323 39.2576 85.9611 39.2576C81.9052 39.2576 79.3799 37.4363 79.1197 34.8956V34.8803ZM88.6854 26.9523C88.6854 24.7177 87.6599 23.3097 86.0376 23.3097C84.4153 23.3097 83.4204 24.7024 83.4204 26.9523C83.4204 29.2021 84.4 30.4725 86.0376 30.4725C87.6752 30.4725 88.6854 29.2327 88.6854 26.9676V26.9523ZM95.0064 26.9523C95.0064 22.3608 97.8225 19.6212 102.169 19.6212C106.516 19.6212 109.347 22.3608 109.347 26.9523C109.347 31.5438 106.592 34.2987 102.169 34.2987C97.746 34.2987 95.0064 31.6356 95.0064 26.9676V26.9523ZM104.725 26.9523C104.725 24.427 103.73 22.9424 102.169 22.9424C100.608 22.9424 99.705 24.4882 99.705 26.9829C99.705 29.4776 100.669 30.9622 102.23 30.9622C103.791 30.9622 104.725 29.5388 104.725 26.9829V26.9523ZM111.092 16.5601C111.08 16.0966 111.206 15.6399 111.454 15.2479C111.702 14.8559 112.06 14.5464 112.484 14.3585C112.908 14.1706 113.378 14.1129 113.835 14.1925C114.292 14.2722 114.715 14.4857 115.05 14.806C115.386 15.1263 115.618 15.539 115.719 15.9917C115.819 16.4444 115.783 16.9168 115.615 17.349C115.447 17.781 115.154 18.1536 114.774 18.4191C114.394 18.6846 113.943 18.8314 113.48 18.8406C113.172 18.8617 112.864 18.819 112.574 18.7153C112.284 18.6115 112.018 18.4489 111.794 18.2376C111.57 18.0264 111.392 17.7709 111.271 17.4875C111.15 17.2042 111.089 16.8988 111.092 16.5908V16.5601ZM111.092 19.9273H115.684V33.9773H111.092V19.9273ZM132.351 26.9523C132.351 31.5438 130.315 34.161 126.826 34.161C125.931 34.2184 125.04 33.9997 124.273 33.5344C123.507 33.069 122.902 32.3795 122.54 31.5591H122.448V38.477H117.857V19.8967H122.448V22.4067H122.54C122.885 21.5727 123.479 20.8653 124.24 20.3806C125.001 19.8959 125.893 19.6574 126.795 19.6977C130.315 19.7589 132.412 22.3914 132.412 26.9829L132.351 26.9523ZM127.759 26.9523C127.759 24.7177 126.734 23.2944 125.127 23.2944C123.52 23.2944 122.494 24.7331 122.479 26.9523C122.464 29.1715 123.52 30.5949 125.127 30.5949C126.734 30.5949 127.759 29.2021 127.759 26.9829V26.9523ZM140.233 19.6059C144.044 19.6059 146.355 21.4119 146.462 24.3045H142.284C142.284 23.3097 141.457 22.6822 140.187 22.6822C138.917 22.6822 138.35 23.1719 138.35 23.8913C138.35 24.6106 138.855 24.8402 139.881 25.0545L142.819 25.6514C145.62 26.2483 146.814 27.3808 146.814 29.5082C146.814 32.4162 144.166 34.2834 140.263 34.2834C136.361 34.2834 133.805 32.4162 133.606 29.5542H138.029C138.167 30.5949 138.993 31.2071 140.34 31.2071C141.687 31.2071 142.299 30.7633 142.299 30.0286C142.299 29.294 141.871 29.1409 140.769 28.9113L138.121 28.3451C135.381 27.7788 133.942 26.3248 133.942 24.1821C133.973 21.4272 136.437 19.6365 140.233 19.6365V19.6059ZM162.134 33.9467H157.711V31.3295H157.619C157.376 32.2082 156.84 32.9773 156.1 33.5091C155.359 34.0408 154.459 34.3033 153.548 34.2528C152.851 34.2924 152.153 34.1819 151.502 33.9286C150.85 33.6754 150.261 33.2854 149.774 32.7847C149.286 32.2843 148.912 31.6848 148.676 31.0271C148.44 30.3695 148.348 29.6688 148.406 28.9726V19.8967H152.997V27.9165C152.997 29.5848 153.854 30.4725 155.278 30.4725C155.611 30.4731 155.942 30.4025 156.247 30.2652C156.55 30.1279 156.822 29.9271 157.042 29.6764C157.261 29.4256 157.427 29.1307 157.523 28.8114C157.619 28.492 157.649 28.1556 157.604 27.8247V19.8967H162.196L162.134 33.9467ZM164.354 19.8967H168.792V22.6056H168.884C169.127 21.7386 169.652 20.9767 170.375 20.4395C171.097 19.9023 171.979 19.6198 172.879 19.6365C173.795 19.5632 174.704 19.8373 175.428 20.4045C176.151 20.9717 176.634 21.7902 176.781 22.6975H176.873C177.15 21.7806 177.726 20.9822 178.508 20.428C179.288 19.8738 180.233 19.5953 181.189 19.6365C181.814 19.6155 182.435 19.7262 183.014 19.9612C183.594 20.1962 184.116 20.5505 184.549 21.0008C184.982 21.4512 185.315 21.9876 185.528 22.5752C185.739 23.1628 185.827 23.7886 185.781 24.4116V33.9773H181.189V25.6361C181.189 24.1055 180.501 23.4015 179.215 23.4015C178.929 23.3991 178.644 23.4581 178.382 23.5748C178.121 23.6914 177.886 23.8628 177.697 24.0775C177.507 24.2923 177.365 24.5451 177.28 24.8192C177.196 25.0935 177.173 25.3824 177.21 25.6667V33.9773H172.848V25.5748C172.848 24.1668 172.159 23.4015 170.904 23.4015C170.615 23.4017 170.327 23.4632 170.064 23.5821C169.799 23.7012 169.562 23.8749 169.371 24.0918C169.178 24.3086 169.034 24.5639 168.947 24.8408C168.861 25.1175 168.833 25.4094 168.869 25.6973V33.9773H164.277L164.354 19.8967Z" fill="#666666"/>
<path d="M43.8105 16.2539C43.0316 14.473 42.0008 12.8133 40.7495 11.3257C38.8998 9.06108 36.5915 7.21384 33.9765 5.90558C31.3615 4.59733 28.499 3.85771 25.5775 3.73541C22.6561 3.61311 19.7419 4.11089 17.0266 5.19602C14.3114 6.28113 11.8568 7.92898 9.82434 10.0311C7.79186 12.1332 6.2276 14.6419 5.23453 17.3922C4.24146 20.1424 3.84208 23.0717 4.06268 25.9874C4.28331 28.9031 5.11889 31.739 6.51446 34.3084C7.91004 36.878 9.83397 39.1228 12.1596 40.8951C13.6518 42.0551 15.3007 42.998 17.0572 43.6959C19.5198 44.7052 22.1555 45.2249 24.8169 45.2265C30.3105 45.2144 35.5751 43.0245 39.457 39.137C43.3386 35.2495 45.5207 29.9817 45.5247 24.4881C45.5286 21.6543 44.945 18.8506 43.8105 16.2539ZM24.8016 7.94328C27.1916 7.94303 29.5527 8.4654 31.7195 9.47379C31.1911 9.70209 30.6356 9.86156 30.0665 9.94826C28.1941 10.2193 26.4596 11.0886 25.1218 12.4264C23.7839 13.7642 22.9146 15.4988 22.6436 17.3712C22.5246 18.4213 22.047 19.3982 21.2914 20.1372C20.5358 20.8761 19.5484 21.3316 18.4959 21.4271C16.6235 21.6981 14.8889 22.5674 13.5511 23.9053C12.2133 25.2431 11.344 26.9776 11.0729 28.85C10.9812 29.8485 10.5552 30.7869 9.86384 31.5131C8.67104 28.9928 8.13521 26.2116 8.3062 23.4285C8.47719 20.6454 9.34944 17.9508 10.8418 15.5954C12.3341 13.2401 14.3981 11.3005 16.8416 9.9572C19.285 8.61392 22.0286 7.9106 24.8169 7.91267L24.8016 7.94328ZM12.1443 35.2016C12.328 35.0333 12.5116 34.8802 12.6953 34.6966C14.0569 33.3765 14.9309 31.6339 15.1747 29.753C15.2735 28.6958 15.7456 27.7083 16.5062 26.9675C17.2383 26.2056 18.2235 25.7374 19.2764 25.6513C21.1489 25.3802 22.8834 24.5109 24.2212 23.1731C25.559 21.8353 26.4284 20.1007 26.6994 18.2283C26.7657 17.1225 27.2401 16.0807 28.031 15.305C28.7811 14.5579 29.7756 14.1068 30.8318 14.0347C32.5519 13.798 34.1562 13.0333 35.4233 11.8461C36.8661 13.0431 38.0884 14.483 39.0353 16.1009C38.9771 16.1794 38.9104 16.2513 38.8363 16.3152C38.1058 17.0838 37.1219 17.5622 36.0661 17.662C34.1917 17.9283 32.4546 18.7961 31.1158 20.1347C29.7773 21.4734 28.9095 23.2106 28.6432 25.085C28.5353 26.1386 28.0665 27.1225 27.3162 27.87C26.5658 28.6177 25.5802 29.0828 24.5261 29.1867C22.6482 29.4556 20.9072 30.3233 19.5616 31.6605C18.2161 32.9979 17.3378 34.7334 17.0572 36.6097C16.9749 37.3577 16.7179 38.0759 16.3073 38.7065C14.737 37.7741 13.3306 36.5901 12.1443 35.2016ZM24.8016 41.1094C23.2486 41.1111 21.7029 40.8947 20.2101 40.4666C20.7208 39.5146 21.0528 38.4771 21.1896 37.4056C21.2969 36.3543 21.7635 35.3721 22.5107 34.6249C23.2579 33.8777 24.24 33.4111 25.2913 33.3038C27.1665 33.0358 28.9046 32.1679 30.2454 30.8297C31.5862 29.4918 32.4578 27.7554 32.7296 25.8808C32.8369 24.8295 33.3036 23.8474 34.0507 23.1002C34.7979 22.353 35.7801 21.8864 36.8314 21.7791C38.2425 21.5956 39.5875 21.0701 40.7495 20.2486C41.3947 22.6942 41.4711 25.255 40.9729 27.7347C40.4747 30.2145 39.415 32.5473 37.8753 34.5539C36.3356 36.5604 34.3568 38.1878 32.0905 39.3109C29.8242 40.434 27.3309 41.0231 24.8016 41.0329V41.1094Z" fill="#666666"/>
</svg>
