<svg width="188" height="41" viewBox="0 0 188 41" fill="none" xmlns="http://www.w3.org/2000/svg">
<g clip-path="url(#clip0_14_382)">
<path fill-rule="evenodd" clip-rule="evenodd" d="M20.1487 4.58001L22.7932 0L30.2905 4.32929L27.647 8.9083C27.1827 9.71158 27.8777 10.6884 28.7883 10.5129L33.8546 9.53508L35.4943 18.0362L30.4279 19.013C22.2326 20.5935 15.9759 11.8085 20.1487 4.58001Z" fill="#666666"/>
<path fill-rule="evenodd" clip-rule="evenodd" d="M15.5677 35.5339L12.9232 40.1139L5.42494 35.7857L8.06945 31.2057C8.53377 30.4024 7.8388 29.4256 6.92721 29.6011L1.86182 30.5779L0.222168 22.0777L5.28855 21.101C13.4838 19.5205 19.7396 28.3054 15.5677 35.5339Z" fill="#666666"/>
<path fill-rule="evenodd" clip-rule="evenodd" d="M15.7965 4.58001L13.1529 0L5.65465 4.32929L8.29916 8.9083C8.76248 9.71158 8.06851 10.6884 7.15692 10.5129L2.09053 9.53508L0.452881 18.0362L5.51827 19.013C13.7145 20.5935 19.9713 11.8085 15.7975 4.58001H15.7965Z" fill="#666666"/>
<path fill-rule="evenodd" clip-rule="evenodd" d="M19.9282 35.5339L22.5707 40.1139L30.0689 35.7857L27.4244 31.2057C26.9611 30.4024 27.6551 29.4256 28.5667 29.6011L33.6321 30.5779L35.2717 22.0777L30.2053 21.101C22.0101 19.5205 15.7543 28.3054 19.9261 35.5339H19.9282Z" fill="#666666"/>
<path d="M163.801 30.2389V21.7147C163.801 20.5333 164.072 19.4733 164.616 18.5356C165.179 17.5789 165.976 16.8288 167.008 16.2842C168.04 15.7407 169.268 15.4689 170.693 15.4689C171.358 15.4624 172.021 15.5475 172.663 15.7216C173.263 15.8721 173.807 16.0877 174.294 16.3685C174.801 16.6312 175.232 16.9501 175.589 17.3252H175.645C176.027 16.9448 176.463 16.6224 176.939 16.3685C177.462 16.0809 178.02 15.8634 178.6 15.7216C179.251 15.5487 179.923 15.4637 180.597 15.4689C182.022 15.4689 183.251 15.7397 184.283 16.2842C185.314 16.8288 186.111 17.5779 186.674 18.5356C187.237 19.4733 187.518 20.5323 187.518 21.7147V30.2389H183.128V21.8551C183.128 21.3867 183.007 20.9645 182.763 20.5895C182.54 20.1972 182.22 19.868 181.835 19.6328C181.428 19.3854 180.96 19.2585 180.484 19.2667C179.978 19.2667 179.518 19.3891 179.106 19.6328C178.72 19.8677 178.401 20.1969 178.177 20.5895C177.95 20.972 177.833 21.4101 177.839 21.8551V30.2389H173.479V21.8551C173.479 21.3867 173.357 20.9645 173.113 20.5895C172.884 20.1915 172.554 19.8614 172.156 19.6328C171.75 19.3854 171.281 19.2585 170.805 19.2667C170.299 19.2667 169.84 19.3891 169.428 19.6328C169.042 19.8677 168.722 20.1969 168.499 20.5895C168.272 20.9722 168.155 21.4101 168.161 21.8551V30.2389H163.801ZM154.263 30.5768C152.781 30.5768 151.496 30.296 150.409 29.7324C149.34 29.1508 148.514 28.3726 147.933 27.3978C147.351 26.404 147.06 25.3059 147.06 24.1055V15.8059H151.421V23.9931C151.421 24.4996 151.543 24.9689 151.786 25.4001C152.03 25.8123 152.359 26.1503 152.771 26.413C153.203 26.6567 153.691 26.779 154.234 26.779C154.76 26.779 155.228 26.6567 155.641 26.413C156.073 26.1503 156.411 25.8123 156.654 25.4001C156.898 24.9689 157.02 24.4996 157.02 23.9931V15.8059H161.381V24.1055C161.381 25.3059 161.099 26.404 160.536 27.3978C159.974 28.3726 159.158 29.1518 158.089 29.7324C157.038 30.295 155.763 30.5768 154.263 30.5768ZM133.013 30.2389V26.779H139.963C140.15 26.779 140.319 26.7409 140.469 26.6657C140.619 26.5725 140.741 26.4501 140.834 26.3007C140.926 26.1529 140.975 25.9823 140.975 25.8083C140.975 25.6343 140.926 25.4637 140.834 25.3159C140.747 25.1713 140.62 25.0542 140.469 24.9779C140.317 24.8838 140.142 24.835 139.963 24.8375H137.431C136.492 24.8375 135.639 24.6871 134.87 24.3873C134.141 24.085 133.515 23.5765 133.069 22.9241C132.638 22.2492 132.422 21.3767 132.422 20.3077C132.422 19.4823 132.619 18.7322 133.013 18.0573C133.423 17.3844 133.993 16.8235 134.673 16.4246C135.382 16.0131 136.189 15.7994 137.009 15.8059H143.957V19.2948H137.683C137.434 19.2898 137.193 19.3806 137.009 19.5485C136.926 19.6289 136.861 19.7253 136.818 19.8317C136.774 19.9381 136.753 20.0523 136.755 20.1673C136.755 20.43 136.84 20.6547 137.009 20.8422C137.193 21.0101 137.434 21.1009 137.683 21.0959H140.159C141.209 21.0959 142.11 21.2554 142.86 21.5733C143.629 21.8741 144.22 22.3615 144.633 23.0374C145.064 23.7123 145.28 24.5838 145.28 25.6529C145.28 26.4972 145.064 27.2664 144.633 27.9594C144.224 28.6501 143.642 29.2225 142.944 29.6201C142.25 30.0333 141.463 30.2389 140.582 30.2389H133.013ZM123.512 15.4689C124.732 15.4689 125.81 15.6655 126.747 16.0596C127.668 16.4108 128.496 16.969 129.167 17.6912C129.851 18.3989 130.378 19.2425 130.715 20.1673C131.071 21.1049 131.249 22.1459 131.249 23.2901C131.249 24.7152 130.949 25.9818 130.349 27.0879C129.794 28.148 128.957 29.0341 127.93 29.6482C126.898 30.267 125.697 30.5768 124.329 30.5768C123.747 30.5768 123.193 30.5016 122.668 30.3522C122.17 30.2059 121.696 29.9876 121.262 29.7044C120.852 29.4264 120.499 29.0731 120.221 28.6634H120.136V36.3452H115.775V23.2891C115.775 21.6946 116.094 20.3157 116.732 19.1534C117.35 18.0093 118.289 17.0704 119.433 16.4517C120.596 15.7959 121.956 15.4679 123.512 15.4679V15.4689ZM123.512 19.2386C122.837 19.2386 122.247 19.4071 121.74 19.7451C121.252 20.064 120.877 20.5143 120.614 21.0959C120.352 21.6575 120.221 22.2963 120.221 23.0083C120.221 23.7214 120.352 24.3592 120.614 24.9218C120.877 25.4844 121.252 25.9347 121.74 26.2726C122.247 26.5915 122.837 26.751 123.512 26.751C124.187 26.751 124.769 26.5905 125.256 26.2726C125.747 25.9323 126.136 25.4655 126.382 24.9218C126.663 24.3592 126.804 23.7214 126.804 23.0083C126.804 22.2963 126.663 21.6585 126.382 21.0959C126.12 20.5143 125.745 20.063 125.256 19.7451C124.769 19.4071 124.187 19.2386 123.512 19.2386ZM109.148 30.2389V15.8059H113.538V30.2389H109.148ZM111.343 14.1743C110.649 14.1743 110.049 13.9215 109.543 13.4151C109.036 12.9087 108.782 12.308 108.782 11.614C108.782 10.92 109.036 10.3203 109.543 9.81387C110.049 9.28838 110.649 9.02563 111.343 9.02563C112.037 9.02563 112.637 9.28838 113.144 9.81387C113.65 10.3203 113.903 10.92 113.903 11.614C113.903 12.308 113.65 12.9077 113.144 13.4151C112.637 13.9215 112.037 14.1743 111.343 14.1743ZM99.6093 30.5768C98.1281 30.5768 96.7963 30.2489 95.614 29.592C94.4541 28.9562 93.4835 28.0244 92.801 26.8914C92.1261 25.7471 91.7881 24.4625 91.7881 23.0364C91.7881 21.5923 92.1261 20.3077 92.801 19.1825C93.4835 18.0495 94.4541 17.1176 95.614 16.4818C96.7963 15.8059 98.1281 15.4689 99.6093 15.4689C101.092 15.4689 102.413 15.8059 103.577 16.4818C104.732 17.1132 105.695 18.0466 106.361 19.1825C107.055 20.3077 107.402 21.5923 107.402 23.0364C107.402 24.4625 107.055 25.7471 106.361 26.8914C105.695 28.0272 104.732 28.9607 103.577 29.592C102.395 30.2489 101.072 30.5768 99.6093 30.5768ZM99.6093 26.779C100.303 26.779 100.904 26.6096 101.41 26.2726C101.917 25.935 102.325 25.4688 102.592 24.9218C102.874 24.3592 103.014 23.7214 103.014 23.0083C103.014 22.3144 102.874 21.6866 102.592 21.123C102.325 20.5763 101.917 20.1104 101.41 19.7732C100.904 19.4352 100.303 19.2667 99.6093 19.2667C98.9154 19.2667 98.3056 19.4352 97.7811 19.7732C97.2743 20.1108 96.8663 20.5769 96.5988 21.124C96.3122 21.7106 96.1679 22.3565 96.1776 23.0093C96.1776 23.7214 96.318 24.3592 96.5988 24.9218C96.8664 25.4688 97.2744 25.9349 97.7811 26.2726C98.3056 26.6096 98.9154 26.779 99.6093 26.779ZM77.6159 35.9511V32.2085H84.8173C85.0991 32.2085 85.3338 32.1152 85.5213 31.9277C85.6127 31.8469 85.6853 31.747 85.7338 31.635C85.7823 31.523 85.8056 31.4018 85.8021 31.2798V28.1008H85.7179C85.3616 28.5151 84.9554 28.8836 84.5084 29.1979C84.0953 29.4988 83.6259 29.7234 83.1014 29.8738C82.5432 30.0307 81.9653 30.1063 81.3856 30.0985C80.1099 30.0985 78.9657 29.7976 77.9528 29.1979C76.959 28.5792 76.1708 27.7257 75.5891 26.6376C75.0275 25.5506 74.7457 24.312 74.7457 22.9241C74.7457 21.5552 75.0365 20.3077 75.6182 19.1825C76.2179 18.0573 77.0904 17.1567 78.2346 16.4818C79.3779 15.8059 80.7758 15.4689 82.4265 15.4689C84.002 15.4689 85.3619 15.7969 86.5061 16.4537C87.6551 17.0774 88.5946 18.0263 89.2068 19.1815C89.8446 20.3448 90.1635 21.7147 90.1635 23.2901V31.7301C90.1635 33.0238 89.7794 34.0467 89.0102 34.7968C88.2601 35.566 87.2191 35.9501 85.8874 35.9501L77.6159 35.9511ZM82.4546 26.4411C83.1295 26.4411 83.7112 26.2907 84.1996 25.9908C84.6815 25.6779 85.0699 25.2407 85.3238 24.7252C85.5905 24.1826 85.7255 23.5848 85.7179 22.9803C85.7179 22.3053 85.5875 21.6866 85.3248 21.124C85.062 20.5614 84.6869 20.1201 84.1986 19.8012C83.7112 19.4633 83.1295 19.2948 82.4536 19.2948C81.7977 19.2948 81.2161 19.4542 80.7097 19.7732C80.2223 20.0921 79.8472 20.5233 79.5845 21.0668C79.3227 21.6114 79.1913 22.2201 79.1913 22.896C79.1913 23.5529 79.3217 24.1526 79.5845 24.6971C79.8472 25.2216 80.2223 25.6438 80.7107 25.9627C81.2161 26.2816 81.7977 26.4411 82.4546 26.4411ZM65.8815 30.5768C64.4003 30.5768 63.0686 30.2489 61.8872 29.592C60.7269 28.9565 59.7559 28.0246 59.0732 26.8914C58.3983 25.7471 58.0603 24.4625 58.0603 23.0364C58.0603 21.5923 58.3983 20.3077 59.0732 19.1825C59.7559 18.0493 60.7269 17.1174 61.8872 16.4818C63.0686 15.8059 64.4003 15.4689 65.8815 15.4689C67.3638 15.4689 68.6855 15.8059 69.8488 16.4818C71.0045 17.1133 71.9671 18.0467 72.6337 19.1825C73.3277 20.3077 73.6747 21.5923 73.6747 23.0364C73.6747 24.4625 73.3277 25.7471 72.6337 26.8914C71.9671 28.0271 71.0045 28.9606 69.8488 29.592C68.6675 30.2489 67.3447 30.5768 65.8815 30.5768ZM65.8815 26.779C66.5755 26.779 67.1752 26.6096 67.6827 26.2726C68.189 25.9348 68.5967 25.4687 68.864 24.9218C69.1448 24.3592 69.2852 23.7214 69.2852 23.0083C69.2852 22.3144 69.1448 21.6866 68.864 21.123C68.5966 20.5765 68.1889 20.1107 67.6827 19.7732C67.1762 19.4352 66.5755 19.2667 65.8815 19.2667C65.1876 19.2667 64.5778 19.4352 64.0534 19.7732C63.5465 20.1108 63.1385 20.5769 62.871 21.124C62.5845 21.7106 62.4402 22.3565 62.4498 23.0093C62.4498 23.7214 62.5902 24.3592 62.871 24.9218C63.1386 25.4688 63.5466 25.9349 64.0534 26.2726C64.5778 26.6096 65.1876 26.779 65.8815 26.779ZM51.9159 30.2389C50.6964 30.2389 49.6274 29.9681 48.7088 29.4236C47.8153 28.9055 47.0771 28.1575 46.5707 27.2574C46.0643 26.3568 45.8105 25.362 45.8105 24.2749V10.5449H50.537V24.6119C50.537 25.0632 50.6974 25.4563 51.0153 25.7943C51.3342 26.1312 51.7273 26.3007 52.1967 26.3007H57.4015V30.2389H51.9159Z" fill="#666666"/>
</g>
<defs>
<clipPath id="clip0_14_382">
<rect width="187.533" height="40.1139" fill="white" transform="translate(0.222168)"/>
</clipPath>
</defs>
</svg>
