<svg width="188" height="42" viewBox="0 0 188 42" fill="none" xmlns="http://www.w3.org/2000/svg">
<g clip-path="url(#clip0_14_349)">
<path fill-rule="evenodd" clip-rule="evenodd" d="M59.7458 2.75129C59.7458 1.35046 60.8938 0.214844 62.3101 0.214844H66.7772C67.7851 0.214844 68.762 0.560366 69.5414 1.1926L70.9003 2.29488L70.9343 2.32554C70.9656 2.31508 70.997 2.30485 71.0285 2.29488C73.4801 1.51815 76.4546 1.37043 79.4905 1.37043C82.5264 1.37043 85.5009 1.51815 87.9526 2.29488C87.984 2.30485 88.0154 2.31508 88.0467 2.32554L88.0807 2.29488L89.4396 1.1926C90.219 0.560366 91.1959 0.214844 92.2038 0.214844H96.6709C98.0872 0.214844 99.2352 1.35046 99.2352 2.75129V4.31929C99.2352 5.53245 98.7185 6.6895 97.8119 7.50657L96.7157 8.49464C96.1805 8.977 95.5381 9.32805 94.8404 9.51943L94.5811 9.59057C95.5969 11.9881 96.1581 14.5508 96.1581 16.624C96.1581 24.9635 90.9416 28.5653 86.3452 31.7388C82.7255 34.238 79.4905 36.4716 79.4905 40.5445C79.4905 36.4716 76.2555 34.238 72.6358 31.7388C68.0394 28.5653 62.8229 24.9635 62.8229 16.624C62.8229 14.5508 63.3841 11.9881 64.3999 9.59057L64.1406 9.51943C63.4429 9.32805 62.8005 8.977 62.2653 8.49464L61.1691 7.50657C60.2625 6.6895 59.7458 5.53245 59.7458 4.31929V2.75129ZM82.824 23.4419C82.824 23.8404 82.6484 24.2224 82.3359 24.5042C82.0233 24.7859 81.5993 24.9442 81.1572 24.9442C80.7756 24.9442 80.4074 24.8261 80.1128 24.6126C80.6143 25.9404 81.8977 27.1986 83.8497 25.1753C85.573 23.2952 83.7731 19.3299 82.0196 16.9769C81.4351 16.1926 80.4756 15.8151 79.4905 15.8151C78.5055 15.8151 77.5459 16.1926 76.9614 16.9769C75.2079 19.3299 73.408 23.2952 75.1313 25.1753C77.0833 27.1986 78.3667 25.9404 78.8682 24.6126C78.5736 24.8261 78.2054 24.9442 77.8238 24.9442C77.3817 24.9442 76.9577 24.7859 76.6452 24.5042C76.3326 24.2224 76.157 23.8404 76.157 23.4419H82.824ZM73.1076 11.7039H68.4643L72.1237 14.6023C72.929 15.24 74.106 15.0361 74.6043 14.1725C75.2334 13.0822 74.3978 11.7039 73.1076 11.7039ZM85.8734 11.7039H90.5167L86.8573 14.6023C86.052 15.24 84.875 15.0361 84.3767 14.1725C83.7476 13.0822 84.5832 11.7039 85.8734 11.7039Z" fill="#666666"/>
<path d="M104.767 28.7815H108.88V13.2647H104.767V28.7815ZM104.767 10.845H108.88V7.15479H104.767V10.845Z" fill="#666666"/>
<path d="M111.531 33.8631H115.644V27.0272H115.705C116.582 28.3581 118.004 29.2353 120.181 29.2353C124.174 29.2353 126.896 26.0593 126.896 21.0383C126.896 16.1987 124.265 12.8413 120.151 12.8413C118.034 12.8413 116.582 13.8395 115.584 15.2006H115.493V13.2648H111.531V33.8631ZM119.304 25.8174C116.854 25.8174 115.554 23.9723 115.554 21.1593C115.554 18.3765 116.582 16.1685 119.153 16.1685C121.694 16.1685 122.722 18.2253 122.722 21.1593C122.722 24.0933 121.391 25.8174 119.304 25.8174Z" fill="#666666"/>
<path d="M135.102 29.2353C138.974 29.2353 141.636 27.36 141.636 24.2445C141.636 20.6148 138.762 19.8889 136.161 19.3445C133.953 18.8907 131.896 18.7698 131.896 17.4389C131.896 16.3197 132.955 15.7148 134.558 15.7148C136.312 15.7148 137.371 16.3197 137.552 17.9833H141.273C140.97 14.8679 138.702 12.8413 134.618 12.8413C131.079 12.8413 128.297 14.4444 128.297 17.8018C128.297 21.1895 131.019 21.9457 133.802 22.4902C135.919 22.9136 137.885 23.0649 137.885 24.547C137.885 25.6359 136.857 26.3316 135.042 26.3316C133.197 26.3316 131.926 25.5451 131.654 23.7605H127.843C128.085 27.0575 130.596 29.2353 135.102 29.2353Z" fill="#666666"/>
<path d="M157.255 28.7815V13.2646H153.141V22.2178C153.141 24.2746 151.961 25.7265 150.025 25.7265C148.271 25.7265 147.454 24.7283 147.454 22.9135V13.2646H143.371V23.6092C143.371 26.9969 145.307 29.2049 148.755 29.2049C150.933 29.2049 152.143 28.3882 153.201 26.9666H153.292V28.7815H157.255Z" fill="#666666"/>
<path d="M159.915 28.7816H164.029V19.7679C164.029 17.7111 165.148 16.3802 166.812 16.3802C168.324 16.3802 169.201 17.2876 169.201 19.042V28.7816H173.315V19.7679C173.315 17.7111 174.373 16.3802 176.098 16.3802C177.61 16.3802 178.487 17.2876 178.487 19.042V28.7816H182.601V18.3463C182.601 14.9586 180.756 12.8413 177.489 12.8413C175.523 12.8413 173.889 13.8697 172.831 15.5636H172.77C172.014 13.9302 170.441 12.8413 168.475 12.8413C166.328 12.8413 164.815 13.9302 163.968 15.3518H163.878V13.2648H159.915V28.7816Z" fill="#666666"/>
<path d="M0.911865 28.7815H5.02548V7.15479H0.911865V28.7815Z" fill="#666666"/>
<path d="M15.0838 29.2353C19.8931 29.2353 23.1901 25.6661 23.1901 21.0383C23.1901 16.4105 19.8931 12.8413 15.0838 12.8413C10.2745 12.8413 6.97754 16.4105 6.97754 21.0383C6.97754 25.6661 10.2745 29.2353 15.0838 29.2353ZM15.0838 26.0896C12.5431 26.0896 11.1517 24.063 11.1517 21.0383C11.1517 18.0136 12.5431 15.9568 15.0838 15.9568C17.5944 15.9568 19.016 18.0136 19.016 21.0383C19.016 24.063 17.5944 26.0896 15.0838 26.0896Z" fill="#666666"/>
<path d="M31.9382 34.0748C34.237 34.0748 36.2333 33.5304 37.534 32.3205C38.6834 31.2618 39.379 29.7797 39.379 27.6019V13.2648H35.4167V14.8981H35.3562C34.4185 13.5975 32.9969 12.8413 31.0611 12.8413C27.1289 12.8413 24.3462 15.8055 24.3462 20.4334C24.3462 25.1217 27.7339 27.8439 31.1821 27.8439C33.1481 27.8439 34.3278 27.0575 35.2352 26.0291H35.3259V27.7229C35.3259 29.8402 34.2068 30.9594 31.8777 30.9594C29.9722 30.9594 29.095 30.2032 28.7623 29.2353H24.6789C25.1024 32.26 27.7036 34.0748 31.9382 34.0748ZM31.8777 24.547C29.7604 24.547 28.3691 23.0044 28.3691 20.3729C28.3691 17.7716 29.7604 16.1383 31.8475 16.1383C34.3278 16.1383 35.5376 18.0741 35.5376 20.3426C35.5376 22.6414 34.479 24.547 31.8777 24.547Z" fill="#666666"/>
<path d="M49.3777 29.2353C54.187 29.2353 57.484 25.6661 57.484 21.0383C57.484 16.4105 54.187 12.8413 49.3777 12.8413C44.5684 12.8413 41.2715 16.4105 41.2715 21.0383C41.2715 25.6661 44.5684 29.2353 49.3777 29.2353ZM49.3777 26.0896C46.837 26.0896 45.4456 24.063 45.4456 21.0383C45.4456 18.0136 46.837 15.9568 49.3777 15.9568C51.8882 15.9568 53.3099 18.0136 53.3099 21.0383C53.3099 24.063 51.8882 26.0896 49.3777 26.0896Z" fill="#666666"/>
<path d="M182.415 9.877C182.415 9.18095 182.979 8.6167 183.675 8.6167H186.196C186.892 8.6167 187.456 9.18095 187.456 9.877C187.456 10.573 186.892 11.1373 186.196 11.1373H183.675C182.979 11.1373 182.415 10.573 182.415 9.877Z" fill="#666666"/>
</g>
<defs>
<clipPath id="clip0_14_349">
<rect width="187.533" height="41.3378" fill="white" transform="translate(0.222168)"/>
</clipPath>
</defs>
</svg>
